<svg xmlns="http://www.w3.org/2000/svg" xmlns:xlink="http://www.w3.org/1999/xlink" xmlns:lucid="lucid" width="1760" height="1360"><g transform="translate(0 0)" lucid:page-tab-id="HWEp-vi-RSFO"><path d="M0 0h1760v1360H0z" fill="#fff"/><path d="M660 107.67h300v266H660z" stroke="#fff" stroke-width="2" fill="#ffe342"/><path d="M660 166.87h300" stroke="#fff" stroke-width="2" fill="none"/><use xlink:href="#a" transform="matrix(1,0,0,1,668,115.6671052997101) translate(142 14.799999999999999)"/><use xlink:href="#b" transform="matrix(1,0,0,1,668,115.6671052997101) translate(125.525 36.4)"/><use xlink:href="#c" transform="matrix(1,0,0,1,672,174.8671052997101) translate(0 55.89999999999999)"/><use xlink:href="#d" transform="matrix(1,0,0,1,672,174.8671052997101) translate(0 77.5)"/><use xlink:href="#e" transform="matrix(1,0,0,1,672,174.8671052997101) translate(0 99.1)"/><use xlink:href="#f" transform="matrix(1,0,0,1,672,174.8671052997101) translate(0 120.70000000000002)"/><use xlink:href="#g" transform="matrix(1,0,0,1,672,174.8671052997101) translate(0 142.3)"/><path d="M180 140h300v414H180z" stroke="#8ee895" stroke-width="2" fill="#008a0e"/><path d="M180 177.6h300" stroke="#8ee895" stroke-width="2" fill="none"/><use xlink:href="#h" transform="matrix(1,0,0,1,188,148) translate(112.6 14.6)"/><use xlink:href="#i" transform="matrix(1,0,0,1,192,185.6) translate(0 65.30000000000001)"/><use xlink:href="#j" transform="matrix(1,0,0,1,192,185.6) translate(0 86.9)"/><use xlink:href="#k" transform="matrix(1,0,0,1,192,185.6) translate(0 108.50000000000001)"/><use xlink:href="#l" transform="matrix(1,0,0,1,192,185.6) translate(0 130.10000000000002)"/><use xlink:href="#m" transform="matrix(1,0,0,1,192,185.6) translate(0 151.70000000000002)"/><use xlink:href="#n" transform="matrix(1,0,0,1,192,185.6) translate(0 173.3)"/><use xlink:href="#o" transform="matrix(1,0,0,1,192,185.6) translate(0 194.9)"/><use xlink:href="#p" transform="matrix(1,0,0,1,192,185.6) translate(0 216.5)"/><use xlink:href="#q" transform="matrix(1,0,0,1,192,185.6) translate(0 238.1)"/><use xlink:href="#r" transform="matrix(1,0,0,1,192,185.6) translate(0 259.7)"/><use xlink:href="#s" transform="matrix(1,0,0,1,192,185.6) translate(0 281.29999999999995)"/><use xlink:href="#t" transform="matrix(1,0,0,1,192,185.6) translate(0 302.9)"/><path d="M462 555.5v251.33a12 12 0 0 0 12 12h154.63" stroke="#333" fill="none"/><path d="M462.48 555.5h-.96v-.5h.96z" stroke="#333" stroke-width=".05" fill="#333"/><path d="M658.3 818.83l-14.86 14.85-15.15-14.85 15.14-14.85z" stroke="#333" fill="#fff"/><path d="M660 440h300v201H660z" stroke="#ff8f8f" stroke-width="2" fill="#ffd9d9"/><path d="M660 477.6h300" stroke="#ff8f8f" stroke-width="2" fill="none"/><g><use xlink:href="#u" transform="matrix(1,0,0,1,668,448) translate(87.57499999999999 14.6)"/></g><g><use xlink:href="#v" transform="matrix(1,0,0,1,672,485.6) translate(0 56)"/><use xlink:href="#w" transform="matrix(1,0,0,1,672,485.6) translate(0 77.60000000000001)"/><use xlink:href="#x" transform="matrix(1,0,0,1,672,485.6) translate(0 99.20000000000002)"/></g><path d="M660 707.33h300v223H660z" stroke="#b8f5ed" stroke-width="2" fill="#d7faf5"/><path d="M660 744.93h300" stroke="#b8f5ed" stroke-width="2" fill="none"/><g><use xlink:href="#y" transform="matrix(1,0,0,1,668,715.3328947002899) translate(106.05 14.6)"/></g><g><use xlink:href="#z" transform="matrix(1,0,0,1,672,752.9328947002899) translate(0 56.19999999999999)"/><use xlink:href="#A" transform="matrix(1,0,0,1,672,752.9328947002899) translate(0 77.8)"/><use xlink:href="#B" transform="matrix(1,0,0,1,672,752.9328947002899) translate(0 99.4)"/><use xlink:href="#C" transform="matrix(1,0,0,1,672,752.9328947002899) translate(0 121)"/></g><path d="M480 372.83h77.25a12 12 0 0 1 12 12V528.5a12 12 0 0 0 12 12h47.38M480 372.83h-.5" stroke="#333" fill="none"/><path d="M658.3 540.5l-14.86 14.85-15.15-14.85 15.14-14.85z" stroke="#333" fill="#fff"/><path d="M481.5 228h78.62a9.88 9.88 0 0 1 9.88 9.88 9.88 9.88 0 0 0 9.88 9.9h48.75" stroke="#333" fill="none"/><path d="M481.5 228.47h-.5v-.94h.5z" stroke="#333" stroke-width=".05" fill="#333"/><path d="M658.3 247.77l-14.86 14.85-15.15-14.85 15.14-14.85z" stroke="#333" fill="#fff"/><defs><path fill="#282c33" d="M67-125c0 53 21 87 73 88 37 1 54-22 65-47l45 17C233-25 199 4 140 4 58 4 20-42 15-125 8-235 124-281 211-232c18 10 29 29 36 50l-46 12c-8-25-30-41-62-41-52 0-71 34-72 86" id="D"/><path fill="#282c33" d="M133-34C117-15 103 5 69 4 32 3 11-16 11-54c-1-60 55-63 116-61 1-26-3-47-28-47-18 1-26 9-28 27l-52-2c7-38 36-58 82-57s74 22 75 68l1 82c-1 14 12 18 25 15v27c-30 8-71 5-69-32zm-48 3c29 0 43-24 42-57-32 0-66-3-65 30 0 17 8 27 23 27" id="E"/><path fill="#282c33" d="M25 0v-261h50V0H25" id="F"/><g id="b"><use transform="matrix(0.05,0,0,0.05,0,0)" xlink:href="#D"/><use transform="matrix(0.05,0,0,0.05,12.950000000000001,0)" xlink:href="#E"/><use transform="matrix(0.05,0,0,0.05,22.950000000000003,0)" xlink:href="#F"/><use transform="matrix(0.05,0,0,0.05,27.950000000000003,0)" xlink:href="#F"/></g><path fill="#282c33" d="M125-100v72H85v-72H15v-39h70v-72h40v72h71v39h-71" id="G"/><path fill="#282c33" d="M115-3C79 11 28 4 28-45v-112H4v-33h27l15-45h31v45h36v33H77v99c-1 23 16 31 38 25v30" id="H"/><path fill="#282c33" d="M85 4C-2 5 27-109 22-190h50c7 57-23 150 33 157 60-5 35-97 40-157h50l1 190h-47c-2-12 1-28-3-38-12 25-28 42-61 42" id="I"/><path fill="#282c33" d="M135-150c-39-12-60 13-60 57V0H25l-1-190h47c2 13-1 29 3 40 6-28 27-53 61-41v41" id="J"/><path fill="#282c33" d="M135-194c87-1 58 113 63 194h-50c-7-57 23-157-34-157-59 0-34 97-39 157H25l-1-190h47c2 12-1 28 3 38 12-26 28-41 61-42" id="K"/><path fill="#282c33" d="M140-251c80 0 125 45 125 126S219 4 139 4C58 4 15-44 15-125s44-126 125-126zm-1 214c52 0 73-35 73-88 0-50-21-86-72-86-52 0-73 35-73 86s22 88 72 88" id="L"/><path fill="#282c33" d="M67-93c0 74 22 123 53 168H70C40 30 18-18 18-93s22-123 52-168h50c-32 44-53 94-53 168" id="M"/><path fill="#282c33" d="M102-93c0 74-22 123-52 168H0C30 29 54-18 53-93c0-74-22-123-53-168h50c30 45 52 94 52 168" id="N"/><g id="c"><use transform="matrix(0.05,0,0,0.05,0,0)" xlink:href="#G"/><use transform="matrix(0.05,0,0,0.05,10.5,0)" xlink:href="#H"/><use transform="matrix(0.05,0,0,0.05,16.45,0)" xlink:href="#I"/><use transform="matrix(0.05,0,0,0.05,27.399999999999995,0)" xlink:href="#J"/><use transform="matrix(0.05,0,0,0.05,34.4,0)" xlink:href="#K"/><use transform="matrix(0.05,0,0,0.05,45.35,0)" xlink:href="#L"/><use transform="matrix(0.05,0,0,0.05,59.35,0)" xlink:href="#K"/><use transform="matrix(0.05,0,0,0.05,70.3,0)" xlink:href="#M"/><use transform="matrix(0.05,0,0,0.05,76.25,0)" xlink:href="#N"/></g><path fill="#282c33" d="M190-63c-7 42-38 67-86 67-59 0-84-38-90-98-12-110 154-137 174-36l-49 2c-2-19-15-32-35-32-30 0-35 28-38 64-6 74 65 87 74 30" id="O"/><g id="d"><use transform="matrix(0.05,0,0,0.05,0,0)" xlink:href="#G"/><use transform="matrix(0.05,0,0,0.05,10.5,0)" xlink:href="#O"/><use transform="matrix(0.05,0,0,0.05,20.5,0)" xlink:href="#E"/><use transform="matrix(0.05,0,0,0.05,30.5,0)" xlink:href="#F"/><use transform="matrix(0.05,0,0,0.05,35.5,0)" xlink:href="#F"/><use transform="matrix(0.05,0,0,0.05,40.5,0)" xlink:href="#M"/><use transform="matrix(0.05,0,0,0.05,46.45,0)" xlink:href="#N"/></g><path fill="#282c33" d="M137-138c1-29-70-34-71-4 15 46 118 7 119 86 1 83-164 76-172 9l43-7c4 19 20 25 44 25 33 8 57-30 24-41C81-84 22-81 20-136c-2-80 154-74 161-7" id="P"/><path fill="#282c33" d="M231 0h-52l-39-155L100 0H48L-1-190h46L77-45c9-52 24-97 36-145h53l37 145 32-145h46" id="Q"/><path fill="#282c33" d="M185-48c-13 30-37 53-82 52C43 2 14-33 14-96s30-98 90-98c62 0 83 45 84 108H66c0 31 8 55 39 56 18 0 30-7 34-22zm-45-69c5-46-57-63-70-21-2 6-4 13-4 21h74" id="R"/><g id="e"><use transform="matrix(0.05,0,0,0.05,0,0)" xlink:href="#G"/><use transform="matrix(0.05,0,0,0.05,10.5,0)" xlink:href="#E"/><use transform="matrix(0.05,0,0,0.05,20.5,0)" xlink:href="#K"/><use transform="matrix(0.05,0,0,0.05,31.450000000000003,0)" xlink:href="#P"/><use transform="matrix(0.05,0,0,0.05,41.45,0)" xlink:href="#Q"/><use transform="matrix(0.05,0,0,0.05,55.45,0)" xlink:href="#R"/><use transform="matrix(0.05,0,0,0.05,65.45,0)" xlink:href="#J"/><use transform="matrix(0.05,0,0,0.05,72.45,0)" xlink:href="#M"/><use transform="matrix(0.05,0,0,0.05,78.4,0)" xlink:href="#N"/></g><path fill="#282c33" d="M128 0H69L1-190h53L99-40l48-150h52" id="S"/><path fill="#282c33" d="M110-194c64 0 96 36 96 99 0 64-35 99-97 99-61 0-95-36-95-99 0-62 34-99 96-99zm-1 164c35 0 45-28 45-65 0-40-10-65-43-65-34 0-45 26-45 65 0 36 10 65 43 65" id="T"/><path fill="#282c33" d="M25-224v-37h50v37H25zM25 0v-190h50V0H25" id="U"/><path fill="#282c33" d="M230 0l2-204L168 0h-37L68-204 70 0H24v-248h70l56 185 57-185h69V0h-46" id="V"/><g id="f"><use transform="matrix(0.05,0,0,0.05,0,0)" xlink:href="#G"/><use transform="matrix(0.05,0,0,0.05,10.5,0)" xlink:href="#S"/><use transform="matrix(0.05,0,0,0.05,20.5,0)" xlink:href="#T"/><use transform="matrix(0.05,0,0,0.05,31.450000000000003,0)" xlink:href="#U"/><use transform="matrix(0.05,0,0,0.05,36.45,0)" xlink:href="#O"/><use transform="matrix(0.05,0,0,0.05,46.45,0)" xlink:href="#R"/><use transform="matrix(0.05,0,0,0.05,56.45,0)" xlink:href="#V"/><use transform="matrix(0.05,0,0,0.05,71.4,0)" xlink:href="#E"/><use transform="matrix(0.05,0,0,0.05,81.4,0)" xlink:href="#U"/><use transform="matrix(0.05,0,0,0.05,86.4,0)" xlink:href="#F"/><use transform="matrix(0.05,0,0,0.05,91.4,0)" xlink:href="#M"/><use transform="matrix(0.05,0,0,0.05,97.35000000000001,0)" xlink:href="#N"/></g><path fill="#282c33" d="M136-208V0H84v-208H4v-40h212v40h-80" id="W"/><path fill="#282c33" d="M121-226c-27-7-43 5-38 36h38v33H83V0H34v-157H6v-33h28c-9-59 32-81 87-68v32" id="X"/><g id="g"><use transform="matrix(0.05,0,0,0.05,0,0)" xlink:href="#G"/><use transform="matrix(0.05,0,0,0.05,10.5,0)" xlink:href="#W"/><use transform="matrix(0.05,0,0,0.05,20.1,0)" xlink:href="#I"/><use transform="matrix(0.05,0,0,0.05,31.05,0)" xlink:href="#J"/><use transform="matrix(0.05,0,0,0.05,38.050000000000004,0)" xlink:href="#K"/><use transform="matrix(0.05,0,0,0.05,49.00000000000001,0)" xlink:href="#L"/><use transform="matrix(0.05,0,0,0.05,63,0)" xlink:href="#X"/><use transform="matrix(0.05,0,0,0.05,68.95,0)" xlink:href="#X"/><use transform="matrix(0.05,0,0,0.05,74.9,0)" xlink:href="#M"/><use transform="matrix(0.05,0,0,0.05,80.85000000000001,0)" xlink:href="#N"/></g><path d="M24 0v-248h52V0H24" id="Y"/><path d="M135-194c53 0 70 44 70 98 0 56-19 98-73 100-31 1-45-17-59-34 3 33 2 69 2 105H25l-1-265h48c2 10 0 23 3 31 11-24 29-35 60-35zM114-30c33 0 39-31 40-66 0-38-9-64-40-64-56 0-55 130 0 130" id="Z"/><path d="M114-157C55-157 80-60 75 0H25v-261h50l-1 109c12-26 28-41 61-42 86-1 58 113 63 194h-50c-7-57 23-157-34-157" id="aa"/><path d="M110-194c64 0 96 36 96 99 0 64-35 99-97 99-61 0-95-36-95-99 0-62 34-99 96-99zm-1 164c35 0 45-28 45-65 0-40-10-65-43-65-34 0-45 26-45 65 0 36 10 65 43 65" id="ab"/><path d="M135-194c87-1 58 113 63 194h-50c-7-57 23-157-34-157-59 0-34 97-39 157H25l-1-190h47c2 12-1 28 3 38 12-26 28-41 61-42" id="ac"/><path d="M185-48c-13 30-37 53-82 52C43 2 14-33 14-96s30-98 90-98c62 0 83 45 84 108H66c0 31 8 55 39 56 18 0 30-7 34-22zm-45-69c5-46-57-63-70-21-2 6-4 13-4 21h74" id="ad"/><g id="h"><use transform="matrix(0.05,0,0,0.05,0,0)" xlink:href="#Y"/><use transform="matrix(0.05,0,0,0.05,5,0)" xlink:href="#Z"/><use transform="matrix(0.05,0,0,0.05,15.950000000000001,0)" xlink:href="#aa"/><use transform="matrix(0.05,0,0,0.05,26.900000000000002,0)" xlink:href="#ab"/><use transform="matrix(0.05,0,0,0.05,37.85,0)" xlink:href="#ac"/><use transform="matrix(0.05,0,0,0.05,48.800000000000004,0)" xlink:href="#ad"/></g><path d="M125-100v72H85v-72H15v-39h70v-72h40v72h71v39h-71" id="ae"/><path d="M115-3C79 11 28 4 28-45v-112H4v-33h27l15-45h31v45h36v33H77v99c-1 23 16 31 38 25v30" id="af"/><path d="M85 4C-2 5 27-109 22-190h50c7 57-23 150 33 157 60-5 35-97 40-157h50l1 190h-47c-2-12 1-28-3-38-12 25-28 42-61 42" id="ag"/><path d="M135-150c-39-12-60 13-60 57V0H25l-1-190h47c2 13-1 29 3 40 6-28 27-53 61-41v41" id="ah"/><path d="M140-251c80 0 125 45 125 126S219 4 139 4C58 4 15-44 15-125s44-126 125-126zm-1 214c52 0 73-35 73-88 0-50-21-86-72-86-52 0-73 35-73 86s22 88 72 88" id="ai"/><path d="M67-93c0 74 22 123 53 168H70C40 30 18-18 18-93s22-123 52-168h50c-32 44-53 94-53 168" id="aj"/><path d="M102-93c0 74-22 123-52 168H0C30 29 54-18 53-93c0-74-22-123-53-168h50c30 45 52 94 52 168" id="ak"/><g id="i"><use transform="matrix(0.05,0,0,0.05,0,0)" xlink:href="#ae"/><use transform="matrix(0.05,0,0,0.05,10.5,0)" xlink:href="#af"/><use transform="matrix(0.05,0,0,0.05,16.45,0)" xlink:href="#ag"/><use transform="matrix(0.05,0,0,0.05,27.399999999999995,0)" xlink:href="#ah"/><use transform="matrix(0.05,0,0,0.05,34.4,0)" xlink:href="#ac"/><use transform="matrix(0.05,0,0,0.05,45.35,0)" xlink:href="#ai"/><use transform="matrix(0.05,0,0,0.05,59.35,0)" xlink:href="#ac"/><use transform="matrix(0.05,0,0,0.05,70.3,0)" xlink:href="#aj"/><use transform="matrix(0.05,0,0,0.05,76.25,0)" xlink:href="#ak"/></g><path d="M190-63c-7 42-38 67-86 67-59 0-84-38-90-98-12-110 154-137 174-36l-49 2c-2-19-15-32-35-32-30 0-35 28-38 64-6 74 65 87 74 30" id="al"/><path d="M133-34C117-15 103 5 69 4 32 3 11-16 11-54c-1-60 55-63 116-61 1-26-3-47-28-47-18 1-26 9-28 27l-52-2c7-38 36-58 82-57s74 22 75 68l1 82c-1 14 12 18 25 15v27c-30 8-71 5-69-32zm-48 3c29 0 43-24 42-57-32 0-66-3-65 30 0 17 8 27 23 27" id="am"/><path d="M25 0v-261h50V0H25" id="an"/><g id="j"><use transform="matrix(0.05,0,0,0.05,0,0)" xlink:href="#ae"/><use transform="matrix(0.05,0,0,0.05,10.5,0)" xlink:href="#al"/><use transform="matrix(0.05,0,0,0.05,20.5,0)" xlink:href="#am"/><use transform="matrix(0.05,0,0,0.05,30.5,0)" xlink:href="#an"/><use transform="matrix(0.05,0,0,0.05,35.5,0)" xlink:href="#an"/><use transform="matrix(0.05,0,0,0.05,40.5,0)" xlink:href="#aj"/><use transform="matrix(0.05,0,0,0.05,46.45,0)" xlink:href="#ak"/></g><path d="M137-138c1-29-70-34-71-4 15 46 118 7 119 86 1 83-164 76-172 9l43-7c4 19 20 25 44 25 33 8 57-30 24-41C81-84 22-81 20-136c-2-80 154-74 161-7" id="ao"/><path d="M231 0h-52l-39-155L100 0H48L-1-190h46L77-45c9-52 24-97 36-145h53l37 145 32-145h46" id="ap"/><g id="k"><use transform="matrix(0.05,0,0,0.05,0,0)" xlink:href="#ae"/><use transform="matrix(0.05,0,0,0.05,10.5,0)" xlink:href="#am"/><use transform="matrix(0.05,0,0,0.05,20.5,0)" xlink:href="#ac"/><use transform="matrix(0.05,0,0,0.05,31.450000000000003,0)" xlink:href="#ao"/><use transform="matrix(0.05,0,0,0.05,41.45,0)" xlink:href="#ap"/><use transform="matrix(0.05,0,0,0.05,55.45,0)" xlink:href="#ad"/><use transform="matrix(0.05,0,0,0.05,65.45,0)" xlink:href="#ah"/><use transform="matrix(0.05,0,0,0.05,72.45,0)" xlink:href="#aj"/><use transform="matrix(0.05,0,0,0.05,78.4,0)" xlink:href="#ak"/></g><path d="M128 0H69L1-190h53L99-40l48-150h52" id="aq"/><path d="M25-224v-37h50v37H25zM25 0v-190h50V0H25" id="ar"/><path d="M230 0l2-204L168 0h-37L68-204 70 0H24v-248h70l56 185 57-185h69V0h-46" id="as"/><g id="l"><use transform="matrix(0.05,0,0,0.05,0,0)" xlink:href="#ae"/><use transform="matrix(0.05,0,0,0.05,10.5,0)" xlink:href="#aq"/><use transform="matrix(0.05,0,0,0.05,20.5,0)" xlink:href="#ab"/><use transform="matrix(0.05,0,0,0.05,31.450000000000003,0)" xlink:href="#ar"/><use transform="matrix(0.05,0,0,0.05,36.45,0)" xlink:href="#al"/><use transform="matrix(0.05,0,0,0.05,46.45,0)" xlink:href="#ad"/><use transform="matrix(0.05,0,0,0.05,56.45,0)" xlink:href="#as"/><use transform="matrix(0.05,0,0,0.05,71.4,0)" xlink:href="#am"/><use transform="matrix(0.05,0,0,0.05,81.4,0)" xlink:href="#ar"/><use transform="matrix(0.05,0,0,0.05,86.4,0)" xlink:href="#an"/><use transform="matrix(0.05,0,0,0.05,91.4,0)" xlink:href="#aj"/><use transform="matrix(0.05,0,0,0.05,97.35000000000001,0)" xlink:href="#ak"/></g><path d="M169-182c-1-43-94-46-97-3 18 66 151 10 154 114 3 95-165 93-204 36-6-8-10-19-12-30l50-8c3 46 112 56 116 5-17-69-150-10-154-114-4-87 153-88 188-35 5 8 8 18 10 28" id="at"/><path d="M195-6C206 82 75 100 31 46c-4-6-6-13-8-21l49-6c3 16 16 24 34 25 40 0 42-37 40-79-11 22-30 35-61 35-53 0-70-43-70-97 0-56 18-96 73-97 30 0 46 14 59 34l2-30h47zm-90-29c32 0 41-27 41-63 0-35-9-62-40-62-32 0-39 29-40 63 0 36 9 62 39 62" id="au"/><g id="m"><use transform="matrix(0.05,0,0,0.05,0,0)" xlink:href="#ae"/><use transform="matrix(0.05,0,0,0.05,10.5,0)" xlink:href="#al"/><use transform="matrix(0.05,0,0,0.05,20.5,0)" xlink:href="#aa"/><use transform="matrix(0.05,0,0,0.05,31.450000000000003,0)" xlink:href="#ab"/><use transform="matrix(0.05,0,0,0.05,42.400000000000006,0)" xlink:href="#ab"/><use transform="matrix(0.05,0,0,0.05,53.35,0)" xlink:href="#ao"/><use transform="matrix(0.05,0,0,0.05,63.35,0)" xlink:href="#ad"/><use transform="matrix(0.05,0,0,0.05,73.35000000000001,0)" xlink:href="#at"/><use transform="matrix(0.05,0,0,0.05,85.35000000000001,0)" xlink:href="#ab"/><use transform="matrix(0.05,0,0,0.05,96.30000000000001,0)" xlink:href="#ac"/><use transform="matrix(0.05,0,0,0.05,107.25,0)" xlink:href="#au"/><use transform="matrix(0.05,0,0,0.05,118.2,0)" xlink:href="#aj"/><use transform="matrix(0.05,0,0,0.05,124.15000000000003,0)" xlink:href="#ak"/></g><path d="M123 10C108 53 80 86 19 72V37c35 8 53-11 59-39L3-190h52l48 148c12-52 28-100 44-148h51" id="av"/><g id="n"><use transform="matrix(0.05,0,0,0.05,0,0)" xlink:href="#ae"/><use transform="matrix(0.05,0,0,0.05,10.5,0)" xlink:href="#Z"/><use transform="matrix(0.05,0,0,0.05,21.450000000000003,0)" xlink:href="#an"/><use transform="matrix(0.05,0,0,0.05,26.450000000000003,0)" xlink:href="#am"/><use transform="matrix(0.05,0,0,0.05,36.45,0)" xlink:href="#av"/><use transform="matrix(0.05,0,0,0.05,46.45,0)" xlink:href="#aj"/><use transform="matrix(0.05,0,0,0.05,52.400000000000006,0)" xlink:href="#ak"/></g><g id="o"><use transform="matrix(0.05,0,0,0.05,0,0)" xlink:href="#ae"/><use transform="matrix(0.05,0,0,0.05,10.5,0)" xlink:href="#Z"/><use transform="matrix(0.05,0,0,0.05,21.450000000000003,0)" xlink:href="#am"/><use transform="matrix(0.05,0,0,0.05,31.450000000000003,0)" xlink:href="#ag"/><use transform="matrix(0.05,0,0,0.05,42.400000000000006,0)" xlink:href="#ao"/><use transform="matrix(0.05,0,0,0.05,52.400000000000006,0)" xlink:href="#ad"/><use transform="matrix(0.05,0,0,0.05,62.400000000000006,0)" xlink:href="#aj"/><use transform="matrix(0.05,0,0,0.05,68.35000000000001,0)" xlink:href="#ak"/></g><path d="M24-248c93 1 206-16 204 79-1 75-69 88-152 82V0H24v-248zm52 121c47 0 100 7 100-41 0-47-54-39-100-39v80" id="aw"/><g id="p"><use transform="matrix(0.05,0,0,0.05,0,0)" xlink:href="#ae"/><use transform="matrix(0.05,0,0,0.05,10.5,0)" xlink:href="#ao"/><use transform="matrix(0.05,0,0,0.05,20.5,0)" xlink:href="#aa"/><use transform="matrix(0.05,0,0,0.05,31.450000000000003,0)" xlink:href="#ab"/><use transform="matrix(0.05,0,0,0.05,42.400000000000006,0)" xlink:href="#ap"/><use transform="matrix(0.05,0,0,0.05,56.400000000000006,0)" xlink:href="#aw"/><use transform="matrix(0.05,0,0,0.05,68.4,0)" xlink:href="#am"/><use transform="matrix(0.05,0,0,0.05,78.4,0)" xlink:href="#au"/><use transform="matrix(0.05,0,0,0.05,89.35000000000001,0)" xlink:href="#ad"/><use transform="matrix(0.05,0,0,0.05,99.35000000000001,0)" xlink:href="#aj"/><use transform="matrix(0.05,0,0,0.05,105.30000000000001,0)" xlink:href="#ak"/></g><path d="M88-194c31-1 46 15 58 34l-1-101h50l1 261h-48c-2-10 0-23-3-31C134-8 116 4 84 4 32 4 16-41 15-95c0-56 19-97 73-99zm17 164c33 0 40-30 41-66 1-37-9-64-41-64s-38 30-39 65c0 43 13 65 39 65" id="ax"/><path d="M175 0L67-191c6 58 2 128 3 191H24v-248h59L193-55c-6-58-2-129-3-193h46V0h-61" id="ay"/><g id="q"><use transform="matrix(0.05,0,0,0.05,0,0)" xlink:href="#ae"/><use transform="matrix(0.05,0,0,0.05,10.5,0)" xlink:href="#am"/><use transform="matrix(0.05,0,0,0.05,20.5,0)" xlink:href="#ax"/><use transform="matrix(0.05,0,0,0.05,31.450000000000003,0)" xlink:href="#ax"/><use transform="matrix(0.05,0,0,0.05,42.400000000000006,0)" xlink:href="#ay"/><use transform="matrix(0.05,0,0,0.05,55.35,0)" xlink:href="#ad"/><use transform="matrix(0.05,0,0,0.05,65.35000000000001,0)" xlink:href="#ap"/><use transform="matrix(0.05,0,0,0.05,79.35000000000001,0)" xlink:href="#aw"/><use transform="matrix(0.05,0,0,0.05,91.35000000000001,0)" xlink:href="#am"/><use transform="matrix(0.05,0,0,0.05,101.35000000000001,0)" xlink:href="#au"/><use transform="matrix(0.05,0,0,0.05,112.30000000000001,0)" xlink:href="#ad"/><use transform="matrix(0.05,0,0,0.05,122.30000000000001,0)" xlink:href="#aj"/><use transform="matrix(0.05,0,0,0.05,128.25,0)" xlink:href="#ak"/></g><g id="r"><use transform="matrix(0.05,0,0,0.05,0,0)" xlink:href="#ae"/><use transform="matrix(0.05,0,0,0.05,10.5,0)" xlink:href="#ag"/><use transform="matrix(0.05,0,0,0.05,21.450000000000003,0)" xlink:href="#Z"/><use transform="matrix(0.05,0,0,0.05,32.400000000000006,0)" xlink:href="#ax"/><use transform="matrix(0.05,0,0,0.05,43.35000000000001,0)" xlink:href="#am"/><use transform="matrix(0.05,0,0,0.05,53.35,0)" xlink:href="#af"/><use transform="matrix(0.05,0,0,0.05,59.30000000000001,0)" xlink:href="#ad"/><use transform="matrix(0.05,0,0,0.05,69.30000000000001,0)" xlink:href="#aw"/><use transform="matrix(0.05,0,0,0.05,81.30000000000001,0)" xlink:href="#am"/><use transform="matrix(0.05,0,0,0.05,91.30000000000001,0)" xlink:href="#au"/><use transform="matrix(0.05,0,0,0.05,102.25000000000001,0)" xlink:href="#ad"/><use transform="matrix(0.05,0,0,0.05,112.25,0)" xlink:href="#aj"/><use transform="matrix(0.05,0,0,0.05,118.2,0)" xlink:href="#ak"/></g><g id="s"><use transform="matrix(0.05,0,0,0.05,0,0)" xlink:href="#ae"/><use transform="matrix(0.05,0,0,0.05,10.5,0)" xlink:href="#ax"/><use transform="matrix(0.05,0,0,0.05,21.450000000000003,0)" xlink:href="#ad"/><use transform="matrix(0.05,0,0,0.05,31.450000000000003,0)" xlink:href="#an"/><use transform="matrix(0.05,0,0,0.05,36.45,0)" xlink:href="#ad"/><use transform="matrix(0.05,0,0,0.05,46.45,0)" xlink:href="#af"/><use transform="matrix(0.05,0,0,0.05,52.400000000000006,0)" xlink:href="#ad"/><use transform="matrix(0.05,0,0,0.05,62.400000000000006,0)" xlink:href="#aw"/><use transform="matrix(0.05,0,0,0.05,74.4,0)" xlink:href="#am"/><use transform="matrix(0.05,0,0,0.05,84.4,0)" xlink:href="#au"/><use transform="matrix(0.05,0,0,0.05,95.35000000000001,0)" xlink:href="#ad"/><use transform="matrix(0.05,0,0,0.05,105.35000000000001,0)" xlink:href="#aj"/><use transform="matrix(0.05,0,0,0.05,111.30000000000001,0)" xlink:href="#ak"/></g><path d="M121-226c-27-7-43 5-38 36h38v33H83V0H34v-157H6v-33h28c-9-59 32-81 87-68v32" id="az"/><g id="t"><use transform="matrix(0.05,0,0,0.05,0,0)" xlink:href="#ae"/><use transform="matrix(0.05,0,0,0.05,10.5,0)" xlink:href="#af"/><use transform="matrix(0.05,0,0,0.05,16.45,0)" xlink:href="#ag"/><use transform="matrix(0.05,0,0,0.05,27.399999999999995,0)" xlink:href="#ah"/><use transform="matrix(0.05,0,0,0.05,34.4,0)" xlink:href="#ac"/><use transform="matrix(0.05,0,0,0.05,45.35,0)" xlink:href="#ai"/><use transform="matrix(0.05,0,0,0.05,59.35,0)" xlink:href="#az"/><use transform="matrix(0.05,0,0,0.05,65.3,0)" xlink:href="#az"/><use transform="matrix(0.05,0,0,0.05,71.25,0)" xlink:href="#aj"/><use transform="matrix(0.05,0,0,0.05,77.2,0)" xlink:href="#ak"/></g><path fill="#282c33" d="M169-182c-1-43-94-46-97-3 18 66 151 10 154 114 3 95-165 93-204 36-6-8-10-19-12-30l50-8c3 46 112 56 116 5-17-69-150-10-154-114-4-87 153-88 188-35 5 8 8 18 10 28" id="aA"/><path fill="#282c33" d="M195-6C206 82 75 100 31 46c-4-6-6-13-8-21l49-6c3 16 16 24 34 25 40 0 42-37 40-79-11 22-30 35-61 35-53 0-70-43-70-97 0-56 18-96 73-97 30 0 46 14 59 34l2-30h47zm-90-29c32 0 41-27 41-63 0-35-9-62-40-62-32 0-39 29-40 63 0 36 9 62 39 62" id="aB"/><path fill="#282c33" d="M-4 44V30h207v14H-4" id="aC"/><path fill="#282c33" d="M24-248c93 1 206-16 204 79-1 75-69 88-152 82V0H24v-248zm52 121c47 0 100 7 100-41 0-47-54-39-100-39v80" id="aD"/><path fill="#282c33" d="M123 10C108 53 80 86 19 72V37c35 8 53-11 59-39L3-190h52l48 148c12-52 28-100 44-148h51" id="aE"/><g id="u"><use transform="matrix(0.05,0,0,0.05,0,0)" xlink:href="#aA"/><use transform="matrix(0.05,0,0,0.05,12,0)" xlink:href="#T"/><use transform="matrix(0.05,0,0,0.05,22.950000000000003,0)" xlink:href="#K"/><use transform="matrix(0.05,0,0,0.05,33.900000000000006,0)" xlink:href="#aB"/><use transform="matrix(0.05,0,0,0.05,44.85000000000001,0)" xlink:href="#aC"/><use transform="matrix(0.05,0,0,0.05,54.85,0)" xlink:href="#aD"/><use transform="matrix(0.05,0,0,0.05,66.85000000000001,0)" xlink:href="#F"/><use transform="matrix(0.05,0,0,0.05,71.85000000000001,0)" xlink:href="#E"/><use transform="matrix(0.05,0,0,0.05,81.85000000000001,0)" xlink:href="#aE"/><use transform="matrix(0.05,0,0,0.05,91.85000000000001,0)" xlink:href="#R"/><use transform="matrix(0.05,0,0,0.05,101.85000000000001,0)" xlink:href="#J"/></g><path fill="#282c33" d="M114-157C55-157 80-60 75 0H25v-261h50l-1 109c12-26 28-41 61-42 86-1 58 113 63 194h-50c-7-57 23-157-34-157" id="aF"/><g id="v"><use transform="matrix(0.05,0,0,0.05,0,0)" xlink:href="#G"/><use transform="matrix(0.05,0,0,0.05,10.5,0)" xlink:href="#O"/><use transform="matrix(0.05,0,0,0.05,20.5,0)" xlink:href="#aF"/><use transform="matrix(0.05,0,0,0.05,31.450000000000003,0)" xlink:href="#T"/><use transform="matrix(0.05,0,0,0.05,42.400000000000006,0)" xlink:href="#T"/><use transform="matrix(0.05,0,0,0.05,53.35,0)" xlink:href="#P"/><use transform="matrix(0.05,0,0,0.05,63.35,0)" xlink:href="#R"/><use transform="matrix(0.05,0,0,0.05,73.35000000000001,0)" xlink:href="#aA"/><use transform="matrix(0.05,0,0,0.05,85.35000000000001,0)" xlink:href="#T"/><use transform="matrix(0.05,0,0,0.05,96.30000000000001,0)" xlink:href="#K"/><use transform="matrix(0.05,0,0,0.05,107.25,0)" xlink:href="#aB"/><use transform="matrix(0.05,0,0,0.05,118.2,0)" xlink:href="#M"/><use transform="matrix(0.05,0,0,0.05,124.15000000000003,0)" xlink:href="#N"/></g><path fill="#282c33" d="M135-194c53 0 70 44 70 98 0 56-19 98-73 100-31 1-45-17-59-34 3 33 2 69 2 105H25l-1-265h48c2 10 0 23 3 31 11-24 29-35 60-35zM114-30c33 0 39-31 40-66 0-38-9-64-40-64-56 0-55 130 0 130" id="aG"/><g id="w"><use transform="matrix(0.05,0,0,0.05,0,0)" xlink:href="#G"/><use transform="matrix(0.05,0,0,0.05,10.5,0)" xlink:href="#aG"/><use transform="matrix(0.05,0,0,0.05,21.450000000000003,0)" xlink:href="#F"/><use transform="matrix(0.05,0,0,0.05,26.450000000000003,0)" xlink:href="#E"/><use transform="matrix(0.05,0,0,0.05,36.45,0)" xlink:href="#aE"/><use transform="matrix(0.05,0,0,0.05,46.45,0)" xlink:href="#M"/><use transform="matrix(0.05,0,0,0.05,52.400000000000006,0)" xlink:href="#N"/></g><g id="x"><use transform="matrix(0.05,0,0,0.05,0,0)" xlink:href="#G"/><use transform="matrix(0.05,0,0,0.05,10.5,0)" xlink:href="#aG"/><use transform="matrix(0.05,0,0,0.05,21.450000000000003,0)" xlink:href="#E"/><use transform="matrix(0.05,0,0,0.05,31.450000000000003,0)" xlink:href="#I"/><use transform="matrix(0.05,0,0,0.05,42.400000000000006,0)" xlink:href="#P"/><use transform="matrix(0.05,0,0,0.05,52.400000000000006,0)" xlink:href="#R"/><use transform="matrix(0.05,0,0,0.05,62.400000000000006,0)" xlink:href="#M"/><use transform="matrix(0.05,0,0,0.05,68.35000000000001,0)" xlink:href="#N"/></g><path fill="#282c33" d="M182-130c37 4 62 22 62 59C244 23 116-4 24 0v-248c84 5 203-23 205 63 0 31-19 50-47 55zM76-148c40-3 101 13 101-30 0-44-60-28-101-31v61zm0 110c48-3 116 14 116-37 0-48-69-32-116-35v72" id="aH"/><g id="y"><use transform="matrix(0.05,0,0,0.05,0,0)" xlink:href="#aH"/><use transform="matrix(0.05,0,0,0.05,12.950000000000001,0)" xlink:href="#J"/><use transform="matrix(0.05,0,0,0.05,19.950000000000003,0)" xlink:href="#T"/><use transform="matrix(0.05,0,0,0.05,30.900000000000006,0)" xlink:href="#Q"/><use transform="matrix(0.05,0,0,0.05,44.900000000000006,0)" xlink:href="#P"/><use transform="matrix(0.05,0,0,0.05,54.900000000000006,0)" xlink:href="#R"/><use transform="matrix(0.05,0,0,0.05,64.9,0)" xlink:href="#J"/></g><g id="z"><use transform="matrix(0.05,0,0,0.05,0,0)" xlink:href="#G"/><use transform="matrix(0.05,0,0,0.05,10.5,0)" xlink:href="#P"/><use transform="matrix(0.05,0,0,0.05,20.5,0)" xlink:href="#aF"/><use transform="matrix(0.05,0,0,0.05,31.450000000000003,0)" xlink:href="#T"/><use transform="matrix(0.05,0,0,0.05,42.400000000000006,0)" xlink:href="#Q"/><use transform="matrix(0.05,0,0,0.05,56.400000000000006,0)" xlink:href="#aD"/><use transform="matrix(0.05,0,0,0.05,68.4,0)" xlink:href="#E"/><use transform="matrix(0.05,0,0,0.05,78.4,0)" xlink:href="#aB"/><use transform="matrix(0.05,0,0,0.05,89.35000000000001,0)" xlink:href="#R"/><use transform="matrix(0.05,0,0,0.05,99.35000000000001,0)" xlink:href="#M"/><use transform="matrix(0.05,0,0,0.05,105.30000000000001,0)" xlink:href="#N"/></g><path fill="#282c33" d="M88-194c31-1 46 15 58 34l-1-101h50l1 261h-48c-2-10 0-23-3-31C134-8 116 4 84 4 32 4 16-41 15-95c0-56 19-97 73-99zm17 164c33 0 40-30 41-66 1-37-9-64-41-64s-38 30-39 65c0 43 13 65 39 65" id="aI"/><path fill="#282c33" d="M175 0L67-191c6 58 2 128 3 191H24v-248h59L193-55c-6-58-2-129-3-193h46V0h-61" id="aJ"/><g id="A"><use transform="matrix(0.05,0,0,0.05,0,0)" xlink:href="#G"/><use transform="matrix(0.05,0,0,0.05,10.5,0)" xlink:href="#E"/><use transform="matrix(0.05,0,0,0.05,20.5,0)" xlink:href="#aI"/><use transform="matrix(0.05,0,0,0.05,31.450000000000003,0)" xlink:href="#aI"/><use transform="matrix(0.05,0,0,0.05,42.400000000000006,0)" xlink:href="#aJ"/><use transform="matrix(0.05,0,0,0.05,55.35,0)" xlink:href="#R"/><use transform="matrix(0.05,0,0,0.05,65.35000000000001,0)" xlink:href="#Q"/><use transform="matrix(0.05,0,0,0.05,79.35000000000001,0)" xlink:href="#aD"/><use transform="matrix(0.05,0,0,0.05,91.35000000000001,0)" xlink:href="#E"/><use transform="matrix(0.05,0,0,0.05,101.35000000000001,0)" xlink:href="#aB"/><use transform="matrix(0.05,0,0,0.05,112.30000000000001,0)" xlink:href="#R"/><use transform="matrix(0.05,0,0,0.05,122.30000000000001,0)" xlink:href="#M"/><use transform="matrix(0.05,0,0,0.05,128.25,0)" xlink:href="#N"/></g><g id="B"><use transform="matrix(0.05,0,0,0.05,0,0)" xlink:href="#G"/><use transform="matrix(0.05,0,0,0.05,10.5,0)" xlink:href="#I"/><use transform="matrix(0.05,0,0,0.05,21.450000000000003,0)" xlink:href="#aG"/><use transform="matrix(0.05,0,0,0.05,32.400000000000006,0)" xlink:href="#E"/><use transform="matrix(0.05,0,0,0.05,42.400000000000006,0)" xlink:href="#aI"/><use transform="matrix(0.05,0,0,0.05,53.35,0)" xlink:href="#R"/><use transform="matrix(0.05,0,0,0.05,63.35,0)" xlink:href="#H"/><use transform="matrix(0.05,0,0,0.05,69.30000000000001,0)" xlink:href="#R"/><use transform="matrix(0.05,0,0,0.05,79.30000000000001,0)" xlink:href="#aD"/><use transform="matrix(0.05,0,0,0.05,91.30000000000001,0)" xlink:href="#E"/><use transform="matrix(0.05,0,0,0.05,101.30000000000001,0)" xlink:href="#aB"/><use transform="matrix(0.05,0,0,0.05,112.25,0)" xlink:href="#R"/><use transform="matrix(0.05,0,0,0.05,122.25,0)" xlink:href="#M"/><use transform="matrix(0.05,0,0,0.05,128.20000000000002,0)" xlink:href="#N"/></g><g id="C"><use transform="matrix(0.05,0,0,0.05,0,0)" xlink:href="#G"/><use transform="matrix(0.05,0,0,0.05,10.5,0)" xlink:href="#aI"/><use transform="matrix(0.05,0,0,0.05,21.450000000000003,0)" xlink:href="#R"/><use transform="matrix(0.05,0,0,0.05,31.450000000000003,0)" xlink:href="#F"/><use transform="matrix(0.05,0,0,0.05,36.45,0)" xlink:href="#R"/><use transform="matrix(0.05,0,0,0.05,46.45,0)" xlink:href="#H"/><use transform="matrix(0.05,0,0,0.05,52.400000000000006,0)" xlink:href="#R"/><use transform="matrix(0.05,0,0,0.05,62.400000000000006,0)" xlink:href="#aD"/><use transform="matrix(0.05,0,0,0.05,74.4,0)" xlink:href="#E"/><use transform="matrix(0.05,0,0,0.05,84.4,0)" xlink:href="#aB"/><use transform="matrix(0.05,0,0,0.05,95.35000000000001,0)" xlink:href="#R"/><use transform="matrix(0.05,0,0,0.05,105.35000000000001,0)" xlink:href="#M"/><use transform="matrix(0.05,0,0,0.05,111.30000000000001,0)" xlink:href="#N"/></g></defs></g></svg>